<svg width="101" height="100" viewBox="0 0 101 100" fill="none" xmlns="http://www.w3.org/2000/svg">
<path d="M100 51.5C100 65.2146 96.0555 77.0893 88.7278 85.5275C81.4074 93.9573 70.6747 99 57 99C43.2929 99 29.1479 94.5588 18.4405 86.7022C7.73801 78.8492 0.5 67.6114 0.5 54C0.5 40.3418 6.6567 27.0877 16.2527 17.2437C25.8485 7.39983 38.8499 0.999985 52.5 0.999985C79.7993 1 100 24.1215 100 51.5Z" fill="#FFC384" stroke="#984B1F"/>
<path d="M28.3341 32.8852C25.3882 31.368 24.23 27.7498 25.7472 24.8039C27.2645 21.8579 30.1929 17.9631 34.5691 20.7793C39.9032 23.5266 37.4219 23.5831 35.9047 26.529C31.8578 25.6504 31.2801 34.4025 28.3341 32.8852Z" fill="#984B1F"/>
<path d="M81 76.5C81 79.5376 76.5376 84 73.5 84C70.4624 84 70 79.5376 70 76.5C70 73.4624 72.4624 71 75.5 71C78.5376 71 81 73.4624 81 76.5Z" fill="#984B1F"/>
<path d="M39.9211 80.6901C38.2446 78.1571 41.0056 78.773 43.5386 77.0965C46.0716 75.4199 47.9054 75.3603 49.582 77.8933C51.2585 80.4263 52.361 85.6475 49.828 87.3241C47.2951 89.0006 41.5976 83.223 39.9211 80.6901Z" fill="#984B1F"/>
<path d="M86.1242 51.1572C87.6886 53.7609 87.7898 57.7395 85.1861 59.304C82.5824 60.8684 80.3199 62.855 78.7555 60.2513C77.191 57.6476 77.9489 56.0694 80.5526 54.505C83.1563 52.9405 84.5597 48.5535 86.1242 51.1572Z" fill="#984B1F"/>
<path d="M69.9727 31.6968C70.9148 33.2647 71.1762 35.5401 69.9186 36.2957C68.6611 37.0513 67.6014 38.0657 66.6593 36.4978C65.7172 34.9299 66.0241 34.0693 67.2817 33.3137C68.5392 32.5581 69.0306 30.1289 69.9727 31.6968Z" fill="#984B1F"/>
<path d="M64 17C66.5 23.5 61.5 24 60 22C57.7909 22 56 19.2091 56 17C56 14.7909 57.7909 13 60 13C62.2091 13 64 14.7909 64 17Z" fill="#984B1F"/>
<path d="M25 56C22.8052 59 22.0899 63 18.5 63C14.9102 63 14 59.866 14 56C14 52.134 14.9102 49 18.5 49C21.5 50.6624 25 52.134 25 56Z" fill="#984B1F"/>
<path d="M65 66.5C64.2019 68 63.9418 70 62.6364 70C61.331 70 61 68.433 61 66.5C61 64.567 61.331 63 62.6364 63C63.7273 63.8312 65 64.567 65 66.5Z" fill="#984B1F"/>
<path d="M86.3128 29.7007C86.651 31.3658 87.7225 33.0745 86.7152 33.9048C85.7079 34.7352 84.4558 33.7365 83.2263 32.245C81.9967 30.7534 81.2554 29.3338 82.2627 28.5035C83.6331 28.4509 85.0832 28.2091 86.3128 29.7007Z" fill="#984B1F"/>
<path d="M56.3098 58.2313C54.7499 58.9049 53.2982 60.305 52.2784 59.4902C51.2586 58.6753 51.9782 57.2445 53.1848 55.7344C54.3914 54.2242 55.6281 53.2066 56.648 54.0215C56.9814 55.3518 57.5164 56.7211 56.3098 58.2313Z" fill="#984B1F"/>
<path d="M45.2973 60.8135C45.548 62.494 46.5285 64.2565 45.4792 65.0329C44.4298 65.8094 43.2317 64.7466 42.0819 63.1928C40.9321 61.6389 40.266 60.1824 41.3154 59.4059C42.6867 59.4252 44.1475 59.2596 45.2973 60.8135Z" fill="#984B1F"/>
<path d="M38.9842 48.2393C38.1223 46.775 36.5529 45.5083 37.235 44.3952C37.9171 43.2822 39.4261 43.8188 41.0742 44.8287C42.7224 45.8387 43.8855 46.9397 43.2035 48.0527C41.9248 48.5486 40.6324 49.2493 38.9842 48.2393Z" fill="#984B1F"/>
<path d="M15.4985 28L16.4157 33.78L23.203 46.0247L19.372 40.1448L18.5449 41.7466L18.16 37.9582L15.2987 33.8275L14.9613 31.1562L15.4985 28Z" fill="#984B1F"/>
<path d="M73 46.0096L76.9799 38.4822L80.7465 37.4514L79.0071 38.8567L76.6055 40.5095L74.987 45.2667L73 46.0096Z" fill="#984B1F"/>
<path d="M44.8802 22.3893L43.371 19L43.871 16L43.871 14L42.6035 12L41.871 9L43.371 7L43.371 10.5L44.371 13L44.8802 15.5L43.871 19L45.871 24L44.8802 22.3893Z" fill="#984B1F"/>
<path d="M31 74.5L27 77.5L26 81.5L26 76L28.0869 74.964L31.7267 71.4996L31 74.5Z" fill="#984B1F"/>
<path d="M63.1007 87.4061L61.9291 82.5457L62.8781 79L60.7764 82.9441L61.5899 85.1005L62.3753 90.0499L63.1007 87.4061Z" fill="#984B1F"/>
</svg>
